<mxfile host="app.diagrams.net" modified="2021-11-09T07:15:42.446Z" agent="5.0 (X11; Linux x86_64) AppleWebKit/537.36 (KHTML, like Gecko) Chrome/95.0.4638.54 Safari/537.36" etag="rmD26R7jDjaVJvw5WCeG" version="15.6.6" type="github">
  <diagram name="Page-1" id="822b0af5-4adb-64df-f703-e8dfc1f81529">
    <mxGraphModel dx="1350" dy="805" grid="1" gridSize="10" guides="1" tooltips="1" connect="1" arrows="1" fold="1" page="1" pageScale="1" pageWidth="827" pageHeight="1169" background="none" math="0" shadow="0">
      <root>
        <mxCell id="0" />
        <mxCell id="1" parent="0" />
        <mxCell id="8JtYcUfM9IEuaBObehJX-1" value="WEB" style="rounded=1;whiteSpace=wrap;html=1;fontColor=#ffffff;strokeColor=#001DBC;fillColor=#0050ef;" vertex="1" parent="1">
          <mxGeometry x="340" y="70" width="125" height="60" as="geometry" />
        </mxCell>
        <mxCell id="8JtYcUfM9IEuaBObehJX-5" value="nginx/&lt;span style=&quot;font-size: 13px ; background-color: rgba(255 , 255 , 255 , 0.01)&quot;&gt;Spring Cloud Gateway&lt;/span&gt;" style="rounded=1;whiteSpace=wrap;html=1;fontColor=#ffffff;strokeColor=#001DBC;fillColor=#0050ef;" vertex="1" parent="1">
          <mxGeometry x="282.5" y="187" width="240" height="60" as="geometry" />
        </mxCell>
        <mxCell id="8JtYcUfM9IEuaBObehJX-74" value="" style="swimlane;startSize=0;fontColor=default;strokeColor=default;fillColor=default;" vertex="1" parent="1">
          <mxGeometry x="30" y="1250" width="120" height="390" as="geometry" />
        </mxCell>
        <mxCell id="8JtYcUfM9IEuaBObehJX-75" value="Java-serviceB-1" style="rounded=1;whiteSpace=wrap;html=1;fontColor=#ffffff;strokeColor=#001DBC;fillColor=#0050ef;" vertex="1" parent="8JtYcUfM9IEuaBObehJX-74">
          <mxGeometry x="20" y="13" width="80" height="60" as="geometry" />
        </mxCell>
        <mxCell id="8JtYcUfM9IEuaBObehJX-76" value="" style="edgeStyle=orthogonalEdgeStyle;rounded=0;orthogonalLoop=1;jettySize=auto;html=1;labelBackgroundColor=default;fontColor=default;strokeColor=#001DBC;fillColor=#0050ef;" edge="1" parent="8JtYcUfM9IEuaBObehJX-74" source="8JtYcUfM9IEuaBObehJX-78" target="8JtYcUfM9IEuaBObehJX-79">
          <mxGeometry relative="1" as="geometry" />
        </mxCell>
        <mxCell id="8JtYcUfM9IEuaBObehJX-77" value="生成仿真结果文件&lt;br&gt;生成仿真流程日志" style="edgeLabel;html=1;align=center;verticalAlign=middle;resizable=0;points=[];fontColor=default;" vertex="1" connectable="0" parent="8JtYcUfM9IEuaBObehJX-76">
          <mxGeometry x="0.1806" y="-2" relative="1" as="geometry">
            <mxPoint y="1" as="offset" />
          </mxGeometry>
        </mxCell>
        <mxCell id="8JtYcUfM9IEuaBObehJX-78" value="仿 真.exe" style="rounded=1;whiteSpace=wrap;html=1;fontColor=default;strokeColor=#001DBC;fillColor=#0050ef;" vertex="1" parent="8JtYcUfM9IEuaBObehJX-74">
          <mxGeometry x="21.5" y="293" width="80" height="60" as="geometry" />
        </mxCell>
        <mxCell id="8JtYcUfM9IEuaBObehJX-79" value="" style="image;html=1;image=img/lib/clip_art/general/Full_Folder_128x128.png;shadow=0;dashed=0;labelBackgroundColor=#ffffff;fontColor=default;strokeColor=default;strokeWidth=2;fillColor=none;verticalAlign=top;" vertex="1" parent="8JtYcUfM9IEuaBObehJX-74">
          <mxGeometry x="56.5" y="137" width="58.5" height="43" as="geometry" />
        </mxCell>
        <mxCell id="8JtYcUfM9IEuaBObehJX-80" value="" style="endArrow=classic;html=1;rounded=0;labelBackgroundColor=default;fontColor=default;strokeColor=#001DBC;exitX=0.5;exitY=1;exitDx=0;exitDy=0;entryX=0.5;entryY=0;entryDx=0;entryDy=0;fillColor=#0050ef;" edge="1" parent="8JtYcUfM9IEuaBObehJX-74" source="8JtYcUfM9IEuaBObehJX-75" target="8JtYcUfM9IEuaBObehJX-79">
          <mxGeometry width="50" height="50" relative="1" as="geometry">
            <mxPoint x="82.5" y="87" as="sourcePoint" />
            <mxPoint x="22.5" y="137" as="targetPoint" />
            <Array as="points">
              <mxPoint x="40" y="120" />
            </Array>
          </mxGeometry>
        </mxCell>
        <mxCell id="8JtYcUfM9IEuaBObehJX-81" value="生成临时文件" style="edgeLabel;html=1;align=center;verticalAlign=middle;resizable=0;points=[];fontColor=default;labelBackgroundColor=default;" vertex="1" connectable="0" parent="8JtYcUfM9IEuaBObehJX-80">
          <mxGeometry x="-0.3434" y="1" relative="1" as="geometry">
            <mxPoint as="offset" />
          </mxGeometry>
        </mxCell>
        <mxCell id="8JtYcUfM9IEuaBObehJX-82" value="" style="endArrow=classic;html=1;rounded=0;labelBackgroundColor=default;fontColor=default;strokeColor=#001DBC;exitX=0;exitY=1;exitDx=0;exitDy=0;entryX=0;entryY=0.25;entryDx=0;entryDy=0;fillColor=#0050ef;" edge="1" parent="8JtYcUfM9IEuaBObehJX-74" source="8JtYcUfM9IEuaBObehJX-75" target="8JtYcUfM9IEuaBObehJX-78">
          <mxGeometry width="50" height="50" relative="1" as="geometry">
            <mxPoint x="70" y="200" as="sourcePoint" />
            <mxPoint x="20" y="250" as="targetPoint" />
            <Array as="points">
              <mxPoint x="20" y="160" />
            </Array>
          </mxGeometry>
        </mxCell>
        <mxCell id="8JtYcUfM9IEuaBObehJX-83" value="调用仿真程序" style="edgeLabel;html=1;align=center;verticalAlign=middle;resizable=0;points=[];fontColor=default;" vertex="1" connectable="0" parent="8JtYcUfM9IEuaBObehJX-82">
          <mxGeometry x="-0.1319" y="1" relative="1" as="geometry">
            <mxPoint as="offset" />
          </mxGeometry>
        </mxCell>
        <mxCell id="8JtYcUfM9IEuaBObehJX-84" value="" style="endArrow=classic;startArrow=classic;html=1;rounded=0;labelBackgroundColor=default;fontSize=12;fontColor=default;strokeColor=#001DBC;entryX=1;entryY=1;entryDx=0;entryDy=0;exitX=0.75;exitY=0;exitDx=0;exitDy=0;fillColor=#0050ef;" edge="1" parent="8JtYcUfM9IEuaBObehJX-74" source="8JtYcUfM9IEuaBObehJX-79" target="8JtYcUfM9IEuaBObehJX-75">
          <mxGeometry width="50" height="50" relative="1" as="geometry">
            <mxPoint x="90" y="130" as="sourcePoint" />
            <mxPoint x="140" y="80" as="targetPoint" />
          </mxGeometry>
        </mxCell>
        <mxCell id="8JtYcUfM9IEuaBObehJX-85" value="读取文件" style="edgeLabel;html=1;align=center;verticalAlign=middle;resizable=0;points=[];fontSize=12;fontColor=default;labelBackgroundColor=default;" vertex="1" connectable="0" parent="8JtYcUfM9IEuaBObehJX-84">
          <mxGeometry x="-0.4457" relative="1" as="geometry">
            <mxPoint as="offset" />
          </mxGeometry>
        </mxCell>
        <mxCell id="8JtYcUfM9IEuaBObehJX-86" value="" style="shape=flexArrow;endArrow=classic;html=1;rounded=0;labelBackgroundColor=default;fontSize=12;fontColor=default;strokeColor=default;exitX=1;exitY=0.5;exitDx=0;exitDy=0;entryX=0;entryY=0.5;entryDx=0;entryDy=0;" edge="1" parent="1" source="8JtYcUfM9IEuaBObehJX-74" target="8JtYcUfM9IEuaBObehJX-89">
          <mxGeometry width="50" height="50" relative="1" as="geometry">
            <mxPoint x="230" y="1470" as="sourcePoint" />
            <mxPoint x="250" y="1430" as="targetPoint" />
          </mxGeometry>
        </mxCell>
        <mxCell id="8JtYcUfM9IEuaBObehJX-87" value="List" style="swimlane;fontStyle=0;childLayout=stackLayout;horizontal=1;startSize=30;horizontalStack=0;resizeParent=1;resizeParentMax=0;resizeLast=0;collapsible=1;marginBottom=0;shadow=0;labelBackgroundColor=default;fontSize=12;fontColor=default;strokeColor=default;strokeWidth=1;fillColor=default;verticalAlign=top;html=1;" vertex="1" parent="1">
          <mxGeometry x="254" y="1360" width="326" height="220" as="geometry" />
        </mxCell>
        <mxCell id="8JtYcUfM9IEuaBObehJX-88" value="1.java按照用户-&amp;gt;项目-&amp;gt;流程生成临时文件夹和&lt;br&gt;临时文件（项目信息，流程参数）" style="text;strokeColor=#FF0000;fillColor=none;align=left;verticalAlign=middle;spacingLeft=4;spacingRight=4;overflow=hidden;points=[[0,0.5],[1,0.5]];portConstraint=eastwest;rotatable=0;shadow=0;dashed=1;dashPattern=1 1;labelBackgroundColor=default;fontSize=12;fontColor=default;html=1;" vertex="1" parent="8JtYcUfM9IEuaBObehJX-87">
          <mxGeometry y="30" width="326" height="30" as="geometry" />
        </mxCell>
        <mxCell id="8JtYcUfM9IEuaBObehJX-89" value="2.java 调用仿真.exe；&lt;br&gt;记录项目日志记录；&lt;br&gt;实时监听仿真过程数据" style="text;align=left;verticalAlign=middle;spacingLeft=4;spacingRight=4;overflow=hidden;points=[[0,0.5],[1,0.5]];portConstraint=eastwest;rotatable=0;shadow=0;labelBackgroundColor=default;fontSize=12;html=1;fontColor=default;strokeWidth=1;strokeColor=#FF3333;dashed=1;dashPattern=1 2;" vertex="1" parent="8JtYcUfM9IEuaBObehJX-87">
          <mxGeometry y="60" width="326" height="50" as="geometry" />
        </mxCell>
        <mxCell id="8JtYcUfM9IEuaBObehJX-90" value="3.仿真.exe在约定文件夹下&lt;br&gt;生成仿真结果数据文件（&lt;font style=&quot;font-size: 10px&quot; color=&quot;#ff3333&quot;&gt;是否需要解析存储mongoDB?&lt;/font&gt;），&lt;br&gt;生成仿真日志文件" style="text;strokeColor=#FF3333;fillColor=none;align=left;verticalAlign=middle;spacingLeft=4;spacingRight=4;overflow=hidden;points=[[0,0.5],[1,0.5]];portConstraint=eastwest;rotatable=0;shadow=0;dashed=1;dashPattern=1 1;labelBackgroundColor=default;fontSize=12;fontColor=default;html=1;" vertex="1" parent="8JtYcUfM9IEuaBObehJX-87">
          <mxGeometry y="110" width="326" height="50" as="geometry" />
        </mxCell>
        <mxCell id="8JtYcUfM9IEuaBObehJX-91" value="4.java获取仿真结束状态后，&lt;br&gt;遍历约定文件夹获取固定格式文件（结果文件，&lt;br&gt;仿真流程日志文件）按需存储-mongoDB或上传-Amazon S3" style="text;strokeColor=#FF0000;fillColor=none;align=left;verticalAlign=middle;spacingLeft=4;spacingRight=4;overflow=hidden;points=[[0,0.5],[1,0.5]];portConstraint=eastwest;rotatable=0;shadow=0;dashed=1;dashPattern=1 1;labelBackgroundColor=default;fontSize=12;fontColor=default;html=1;" vertex="1" parent="8JtYcUfM9IEuaBObehJX-87">
          <mxGeometry y="160" width="326" height="60" as="geometry" />
        </mxCell>
        <mxCell id="8JtYcUfM9IEuaBObehJX-92" style="edgeStyle=orthogonalEdgeStyle;rounded=0;orthogonalLoop=1;jettySize=auto;html=1;entryX=0.5;entryY=0;entryDx=0;entryDy=0;labelBackgroundColor=default;fontSize=10;fontColor=default;strokeColor=default;entryPerimeter=0;" edge="1" parent="1" source="8JtYcUfM9IEuaBObehJX-94" target="8JtYcUfM9IEuaBObehJX-103">
          <mxGeometry relative="1" as="geometry">
            <mxPoint x="180.5" y="1952" as="targetPoint" />
          </mxGeometry>
        </mxCell>
        <mxCell id="8JtYcUfM9IEuaBObehJX-93" value="项目信息，流程参数" style="edgeLabel;html=1;align=center;verticalAlign=middle;resizable=0;points=[];fontSize=10;fontColor=default;labelBackgroundColor=default;" vertex="1" connectable="0" parent="8JtYcUfM9IEuaBObehJX-92">
          <mxGeometry x="-0.255" y="5" relative="1" as="geometry">
            <mxPoint as="offset" />
          </mxGeometry>
        </mxCell>
        <mxCell id="8JtYcUfM9IEuaBObehJX-94" value="MongoDB" style="shape=cylinder;whiteSpace=wrap;html=1;boundedLbl=1;backgroundOutline=1;shadow=0;labelBackgroundColor=default;fontSize=10;fontColor=default;strokeColor=default;strokeWidth=1;fillColor=default;verticalAlign=top;" vertex="1" parent="1">
          <mxGeometry x="333.5" y="1820" width="46" height="60" as="geometry" />
        </mxCell>
        <mxCell id="8JtYcUfM9IEuaBObehJX-95" style="edgeStyle=orthogonalEdgeStyle;rounded=0;orthogonalLoop=1;jettySize=auto;html=1;entryX=0.5;entryY=0;entryDx=0;entryDy=0;labelBackgroundColor=default;fontSize=10;fontColor=default;strokeColor=default;entryPerimeter=0;exitX=0.07;exitY=0.4;exitDx=0;exitDy=0;exitPerimeter=0;" edge="1" parent="1" source="8JtYcUfM9IEuaBObehJX-97" target="8JtYcUfM9IEuaBObehJX-103">
          <mxGeometry relative="1" as="geometry">
            <mxPoint x="401" y="1837" as="sourcePoint" />
            <mxPoint x="180.5" y="1952" as="targetPoint" />
          </mxGeometry>
        </mxCell>
        <mxCell id="8JtYcUfM9IEuaBObehJX-96" value="项目文件，流程文件" style="edgeLabel;html=1;align=center;verticalAlign=middle;resizable=0;points=[];fontSize=10;fontColor=default;labelBackgroundColor=default;" vertex="1" connectable="0" parent="8JtYcUfM9IEuaBObehJX-95">
          <mxGeometry x="-0.2191" y="1" relative="1" as="geometry">
            <mxPoint as="offset" />
          </mxGeometry>
        </mxCell>
        <mxCell id="8JtYcUfM9IEuaBObehJX-97" value="Amazon S3&lt;br&gt;DFS" style="shape=cloud;whiteSpace=wrap;html=1;shadow=0;labelBackgroundColor=default;fontSize=10;fontColor=default;strokeColor=default;strokeWidth=1;fillColor=default;verticalAlign=top;" vertex="1" parent="1">
          <mxGeometry x="401" y="1740" width="120" height="120" as="geometry" />
        </mxCell>
        <mxCell id="8JtYcUfM9IEuaBObehJX-98" style="edgeStyle=orthogonalEdgeStyle;rounded=0;orthogonalLoop=1;jettySize=auto;html=1;entryX=0;entryY=0.5;entryDx=0;entryDy=0;entryPerimeter=0;labelBackgroundColor=default;fontSize=10;fontColor=default;strokeColor=default;startArrow=none;" edge="1" parent="1" source="8JtYcUfM9IEuaBObehJX-108" target="8JtYcUfM9IEuaBObehJX-104">
          <mxGeometry relative="1" as="geometry">
            <Array as="points">
              <mxPoint x="413" y="1981" />
              <mxPoint x="530" y="1981" />
            </Array>
          </mxGeometry>
        </mxCell>
        <mxCell id="8JtYcUfM9IEuaBObehJX-99" value="temp-documents" style="whiteSpace=wrap;html=1;shape=mxgraph.basic.document;shadow=0;labelBackgroundColor=default;fontSize=10;fontColor=default;strokeColor=default;strokeWidth=1;fillColor=default;verticalAlign=top;" vertex="1" parent="1">
          <mxGeometry x="309.5" y="1964" width="70" height="50" as="geometry" />
        </mxCell>
        <mxCell id="8JtYcUfM9IEuaBObehJX-100" value="" style="shape=ellipse;html=1;dashed=0;whitespace=wrap;perimeter=ellipsePerimeter;shadow=0;labelBackgroundColor=default;fontSize=10;fontColor=default;strokeColor=default;strokeWidth=1;fillColor=default;verticalAlign=top;" vertex="1" parent="1">
          <mxGeometry x="1320" y="2580" width="30" height="30" as="geometry" />
        </mxCell>
        <mxCell id="8JtYcUfM9IEuaBObehJX-101" style="edgeStyle=orthogonalEdgeStyle;rounded=0;orthogonalLoop=1;jettySize=auto;html=1;labelBackgroundColor=default;fontSize=10;fontColor=default;strokeColor=default;" edge="1" parent="1" source="8JtYcUfM9IEuaBObehJX-103" target="8JtYcUfM9IEuaBObehJX-99">
          <mxGeometry relative="1" as="geometry" />
        </mxCell>
        <mxCell id="8JtYcUfM9IEuaBObehJX-102" value="生成文件&lt;br&gt;调用仿真" style="edgeLabel;html=1;align=center;verticalAlign=middle;resizable=0;points=[];fontSize=10;fontColor=default;" vertex="1" connectable="0" parent="8JtYcUfM9IEuaBObehJX-101">
          <mxGeometry x="-0.2299" y="-3" relative="1" as="geometry">
            <mxPoint as="offset" />
          </mxGeometry>
        </mxCell>
        <mxCell id="8JtYcUfM9IEuaBObehJX-103" value="java-serve" style="strokeWidth=2;html=1;shape=mxgraph.flowchart.sequential_data;whiteSpace=wrap;shadow=0;labelBackgroundColor=default;fontSize=10;fontColor=default;fillColor=default;verticalAlign=top;strokeColor=default;" vertex="1" parent="1">
          <mxGeometry x="95" y="1954" width="70" height="70" as="geometry" />
        </mxCell>
        <mxCell id="8JtYcUfM9IEuaBObehJX-104" value="仿真serve" style="strokeWidth=2;html=1;shape=mxgraph.flowchart.sequential_data;whiteSpace=wrap;shadow=0;labelBackgroundColor=default;fontSize=10;fontColor=default;fillColor=default;verticalAlign=top;strokeColor=default;" vertex="1" parent="1">
          <mxGeometry x="591" y="1947" width="68" height="67" as="geometry" />
        </mxCell>
        <mxCell id="8JtYcUfM9IEuaBObehJX-105" value="" style="endArrow=classic;html=1;rounded=0;labelBackgroundColor=default;fontSize=10;fontColor=default;strokeColor=default;exitX=0.5;exitY=1;exitDx=0;exitDy=0;exitPerimeter=0;entryX=0.5;entryY=1;entryDx=0;entryDy=0;entryPerimeter=0;startArrow=none;" edge="1" parent="1" source="8JtYcUfM9IEuaBObehJX-106" target="8JtYcUfM9IEuaBObehJX-99">
          <mxGeometry width="50" height="50" relative="1" as="geometry">
            <mxPoint x="466" y="2038" as="sourcePoint" />
            <mxPoint x="366" y="2068" as="targetPoint" />
            <Array as="points" />
          </mxGeometry>
        </mxCell>
        <mxCell id="8JtYcUfM9IEuaBObehJX-106" value="生成仿真结果文件&lt;br&gt;生成仿真日志文件" style="text;html=1;align=center;verticalAlign=middle;resizable=0;points=[];autosize=1;strokeColor=default;fillColor=none;fontSize=10;fontColor=default;labelBackgroundColor=default;" vertex="1" parent="1">
          <mxGeometry x="289.5" y="2048" width="110" height="30" as="geometry" />
        </mxCell>
        <mxCell id="8JtYcUfM9IEuaBObehJX-107" value="" style="endArrow=none;html=1;rounded=0;labelBackgroundColor=default;fontSize=10;fontColor=default;strokeColor=default;exitX=0.5;exitY=1;exitDx=0;exitDy=0;exitPerimeter=0;entryX=0.5;entryY=1;entryDx=0;entryDy=0;entryPerimeter=0;" edge="1" parent="1" source="8JtYcUfM9IEuaBObehJX-104" target="8JtYcUfM9IEuaBObehJX-106">
          <mxGeometry width="50" height="50" relative="1" as="geometry">
            <mxPoint x="480" y="2023" as="sourcePoint" />
            <mxPoint x="344.5" y="2014" as="targetPoint" />
            <Array as="points">
              <mxPoint x="476" y="2088" />
              <mxPoint x="406" y="2088" />
              <mxPoint x="345" y="2088" />
            </Array>
          </mxGeometry>
        </mxCell>
        <mxCell id="8JtYcUfM9IEuaBObehJX-108" value="获取仿真文件" style="text;html=1;align=center;verticalAlign=middle;resizable=0;points=[];autosize=1;strokeColor=default;fillColor=none;fontSize=10;fontColor=default;labelBackgroundColor=default;" vertex="1" parent="1">
          <mxGeometry x="367.5" y="1934" width="90" height="20" as="geometry" />
        </mxCell>
        <mxCell id="8JtYcUfM9IEuaBObehJX-109" value="" style="edgeStyle=orthogonalEdgeStyle;rounded=0;orthogonalLoop=1;jettySize=auto;html=1;entryX=0;entryY=0.5;entryDx=0;entryDy=0;entryPerimeter=0;labelBackgroundColor=default;fontSize=10;fontColor=default;strokeColor=default;endArrow=none;" edge="1" parent="1" source="8JtYcUfM9IEuaBObehJX-99" target="8JtYcUfM9IEuaBObehJX-108">
          <mxGeometry relative="1" as="geometry">
            <mxPoint x="379.5" y="1989.5" as="sourcePoint" />
            <mxPoint x="446" y="1989.5" as="targetPoint" />
            <Array as="points" />
          </mxGeometry>
        </mxCell>
        <mxCell id="8JtYcUfM9IEuaBObehJX-110" value="" style="endArrow=classic;html=1;rounded=0;labelBackgroundColor=default;fontSize=10;fontColor=default;strokeColor=default;exitX=0.5;exitY=1;exitDx=0;exitDy=0;exitPerimeter=0;entryX=1;entryY=1;entryDx=0;entryDy=0;entryPerimeter=0;" edge="1" parent="1" source="8JtYcUfM9IEuaBObehJX-103" target="8JtYcUfM9IEuaBObehJX-104">
          <mxGeometry width="50" height="50" relative="1" as="geometry">
            <mxPoint x="178" y="2100" as="sourcePoint" />
            <mxPoint x="518" y="2100" as="targetPoint" />
            <Array as="points">
              <mxPoint x="230" y="2120" />
              <mxPoint x="471" y="2140" />
            </Array>
          </mxGeometry>
        </mxCell>
        <mxCell id="8JtYcUfM9IEuaBObehJX-111" value="调用仿真.exe" style="edgeLabel;html=1;align=center;verticalAlign=middle;resizable=0;points=[];fontSize=10;fontColor=default;labelBackgroundColor=default;" vertex="1" connectable="0" parent="8JtYcUfM9IEuaBObehJX-110">
          <mxGeometry x="-0.0948" y="-1" relative="1" as="geometry">
            <mxPoint as="offset" />
          </mxGeometry>
        </mxCell>
        <mxCell id="8JtYcUfM9IEuaBObehJX-112" value="" style="endArrow=classic;html=1;rounded=0;labelBackgroundColor=default;fontSize=10;fontColor=default;strokeColor=default;exitX=0.145;exitY=0.855;exitDx=0;exitDy=0;exitPerimeter=0;entryX=1;entryY=1;entryDx=0;entryDy=0;entryPerimeter=0;" edge="1" parent="1" source="8JtYcUfM9IEuaBObehJX-103" target="8JtYcUfM9IEuaBObehJX-104">
          <mxGeometry width="50" height="50" relative="1" as="geometry">
            <mxPoint x="166" y="2080" as="sourcePoint" />
            <mxPoint x="644" y="2070" as="targetPoint" />
            <Array as="points">
              <mxPoint x="215" y="2176" />
              <mxPoint x="456" y="2196" />
            </Array>
          </mxGeometry>
        </mxCell>
        <mxCell id="8JtYcUfM9IEuaBObehJX-113" value="获取仿真过程信息状态" style="edgeLabel;html=1;align=center;verticalAlign=middle;resizable=0;points=[];fontSize=10;fontColor=default;labelBackgroundColor=default;" vertex="1" connectable="0" parent="8JtYcUfM9IEuaBObehJX-112">
          <mxGeometry x="-0.0948" y="-1" relative="1" as="geometry">
            <mxPoint as="offset" />
          </mxGeometry>
        </mxCell>
        <mxCell id="8JtYcUfM9IEuaBObehJX-114" value="" style="endArrow=classic;html=1;rounded=0;labelBackgroundColor=default;fontSize=10;fontColor=default;strokeColor=default;exitX=0.855;exitY=0.145;exitDx=0;exitDy=0;exitPerimeter=0;entryX=0.107;entryY=-0.02;entryDx=0;entryDy=0;entryPerimeter=0;" edge="1" parent="1" source="8JtYcUfM9IEuaBObehJX-103" target="8JtYcUfM9IEuaBObehJX-99">
          <mxGeometry width="50" height="50" relative="1" as="geometry">
            <mxPoint x="180" y="1947" as="sourcePoint" />
            <mxPoint x="230" y="1897" as="targetPoint" />
            <Array as="points">
              <mxPoint x="190" y="1930" />
              <mxPoint x="230" y="1920" />
              <mxPoint x="290" y="1930" />
            </Array>
          </mxGeometry>
        </mxCell>
        <mxCell id="8JtYcUfM9IEuaBObehJX-115" value="遍历临时文件" style="edgeLabel;html=1;align=center;verticalAlign=middle;resizable=0;points=[];fontSize=10;fontColor=default;" vertex="1" connectable="0" parent="8JtYcUfM9IEuaBObehJX-114">
          <mxGeometry x="0.0896" relative="1" as="geometry">
            <mxPoint x="-1" as="offset" />
          </mxGeometry>
        </mxCell>
        <mxCell id="8JtYcUfM9IEuaBObehJX-116" value="" style="endArrow=classic;html=1;rounded=0;labelBackgroundColor=default;fontSize=10;fontColor=default;strokeColor=default;exitX=0;exitY=0.5;exitDx=0;exitDy=0;exitPerimeter=0;entryX=0.25;entryY=0.25;entryDx=0;entryDy=0;entryPerimeter=0;" edge="1" parent="1" source="8JtYcUfM9IEuaBObehJX-103" target="8JtYcUfM9IEuaBObehJX-97">
          <mxGeometry width="50" height="50" relative="1" as="geometry">
            <mxPoint x="50" y="1960" as="sourcePoint" />
            <mxPoint x="150" y="1670" as="targetPoint" />
            <Array as="points">
              <mxPoint x="90" y="1760" />
            </Array>
          </mxGeometry>
        </mxCell>
        <mxCell id="8JtYcUfM9IEuaBObehJX-117" value="存储至mongoDB和Amazon S3" style="edgeLabel;html=1;align=center;verticalAlign=middle;resizable=0;points=[];fontSize=10;fontColor=default;" vertex="1" connectable="0" parent="8JtYcUfM9IEuaBObehJX-116">
          <mxGeometry x="-0.081" y="2" relative="1" as="geometry">
            <mxPoint as="offset" />
          </mxGeometry>
        </mxCell>
        <mxCell id="8JtYcUfM9IEuaBObehJX-118" value="仿真服务，java-work服务业务交互图" style="text;strokeColor=none;fillColor=none;html=1;fontSize=24;fontStyle=1;verticalAlign=middle;align=center;shadow=0;labelBackgroundColor=default;fontColor=default;" vertex="1" parent="1">
          <mxGeometry x="175" y="1670" width="470" height="40" as="geometry" />
        </mxCell>
        <mxCell id="8JtYcUfM9IEuaBObehJX-119" value="仿真服务，java-work服务业务交互说明" style="text;strokeColor=none;fillColor=none;html=1;fontSize=24;fontStyle=1;verticalAlign=middle;align=center;shadow=0;labelBackgroundColor=default;fontColor=default;" vertex="1" parent="1">
          <mxGeometry x="150" y="1190" width="470" height="40" as="geometry" />
        </mxCell>
        <mxCell id="8JtYcUfM9IEuaBObehJX-7" value="Java-web-service" style="rounded=1;whiteSpace=wrap;html=1;fontColor=#ffffff;strokeColor=#001DBC;fillColor=#0050ef;" vertex="1" parent="1">
          <mxGeometry x="231" y="330" width="80" height="60" as="geometry" />
        </mxCell>
        <mxCell id="8JtYcUfM9IEuaBObehJX-3" value="mongoDB" style="shape=datastore;whiteSpace=wrap;html=1;fontSize=18;fillColor=default;strokeColor=default;fontColor=default;" vertex="1" parent="1">
          <mxGeometry x="300" y="540" width="60" height="60" as="geometry" />
        </mxCell>
        <mxCell id="8JtYcUfM9IEuaBObehJX-4" value="Amazon S3" style="sketch=0;outlineConnect=0;fontColor=default;gradientColor=none;strokeColor=#ffffff;fillColor=#232F3E;dashed=0;verticalLabelPosition=middle;verticalAlign=bottom;align=center;html=1;whiteSpace=wrap;fontSize=10;fontStyle=1;spacing=3;shape=mxgraph.aws4.productIcon;prIcon=mxgraph.aws4.s3;" vertex="1" parent="1">
          <mxGeometry x="430" y="500" width="80" height="100" as="geometry" />
        </mxCell>
        <mxCell id="8JtYcUfM9IEuaBObehJX-144" value="" style="edgeStyle=orthogonalEdgeStyle;rounded=0;orthogonalLoop=1;jettySize=auto;html=1;labelBackgroundColor=default;fontColor=default;strokeColor=default;" edge="1" parent="1" source="8JtYcUfM9IEuaBObehJX-31" target="8JtYcUfM9IEuaBObehJX-32">
          <mxGeometry relative="1" as="geometry" />
        </mxCell>
        <mxCell id="8JtYcUfM9IEuaBObehJX-31" value="Java-worker-service" style="rounded=1;whiteSpace=wrap;html=1;strokeColor=#001DBC;fillColor=#0050ef;fontColor=#ffffff;" vertex="1" parent="1">
          <mxGeometry x="540" y="330" width="80" height="60" as="geometry" />
        </mxCell>
        <mxCell id="8JtYcUfM9IEuaBObehJX-32" value="仿 真.exe" style="rounded=1;whiteSpace=wrap;html=1;strokeColor=#001DBC;fillColor=#0050ef;fontColor=default;" vertex="1" parent="1">
          <mxGeometry x="690" y="330" width="80" height="60" as="geometry" />
        </mxCell>
        <mxCell id="8JtYcUfM9IEuaBObehJX-134" value="" style="endArrow=classic;startArrow=classic;html=1;rounded=0;fontColor=default;strokeColor=default;labelBackgroundColor=default;exitX=0.627;exitY=0;exitDx=0;exitDy=0;entryX=0.75;entryY=1;entryDx=0;entryDy=0;exitPerimeter=0;" edge="1" parent="1" source="8JtYcUfM9IEuaBObehJX-5" target="8JtYcUfM9IEuaBObehJX-1">
          <mxGeometry width="50" height="50" relative="1" as="geometry">
            <mxPoint x="380" y="190" as="sourcePoint" />
            <mxPoint x="430" y="140" as="targetPoint" />
          </mxGeometry>
        </mxCell>
        <mxCell id="8JtYcUfM9IEuaBObehJX-168" value="socketIO" style="edgeLabel;html=1;align=center;verticalAlign=middle;resizable=0;points=[];fontColor=default;labelBackgroundColor=default;" vertex="1" connectable="0" parent="8JtYcUfM9IEuaBObehJX-134">
          <mxGeometry x="0.5095" y="-1" relative="1" as="geometry">
            <mxPoint y="11" as="offset" />
          </mxGeometry>
        </mxCell>
        <mxCell id="8JtYcUfM9IEuaBObehJX-135" value="" style="endArrow=classic;startArrow=classic;html=1;rounded=0;labelBackgroundColor=default;fontColor=default;strokeColor=default;entryX=0.25;entryY=1;entryDx=0;entryDy=0;exitX=0.5;exitY=0;exitDx=0;exitDy=0;" edge="1" parent="1" source="8JtYcUfM9IEuaBObehJX-7" target="8JtYcUfM9IEuaBObehJX-5">
          <mxGeometry width="50" height="50" relative="1" as="geometry">
            <mxPoint x="330" y="330" as="sourcePoint" />
            <mxPoint x="380" y="280" as="targetPoint" />
          </mxGeometry>
        </mxCell>
        <mxCell id="8JtYcUfM9IEuaBObehJX-146" value="参数设置&lt;br&gt;请求数据&lt;br&gt;socket注册服务" style="edgeLabel;html=1;align=center;verticalAlign=middle;resizable=0;points=[];fontColor=default;" vertex="1" connectable="0" parent="8JtYcUfM9IEuaBObehJX-135">
          <mxGeometry x="0.2535" y="-2" relative="1" as="geometry">
            <mxPoint x="-1" as="offset" />
          </mxGeometry>
        </mxCell>
        <mxCell id="8JtYcUfM9IEuaBObehJX-142" value="" style="curved=1;endArrow=classic;html=1;rounded=0;labelBackgroundColor=default;fontColor=default;strokeColor=default;exitX=0.25;exitY=0;exitDx=0;exitDy=0;entryX=1;entryY=0.25;entryDx=0;entryDy=0;" edge="1" parent="1" source="8JtYcUfM9IEuaBObehJX-31" target="8JtYcUfM9IEuaBObehJX-7">
          <mxGeometry width="50" height="50" relative="1" as="geometry">
            <mxPoint x="379.5" y="360" as="sourcePoint" />
            <mxPoint x="439.5" y="300" as="targetPoint" />
            <Array as="points">
              <mxPoint x="430" y="290" />
              <mxPoint x="379.5" y="310" />
            </Array>
          </mxGeometry>
        </mxCell>
        <mxCell id="8JtYcUfM9IEuaBObehJX-143" value="Socket注册服务" style="edgeLabel;html=1;align=center;verticalAlign=middle;resizable=0;points=[];fontColor=default;" vertex="1" connectable="0" parent="8JtYcUfM9IEuaBObehJX-142">
          <mxGeometry x="-0.1868" y="7" relative="1" as="geometry">
            <mxPoint as="offset" />
          </mxGeometry>
        </mxCell>
        <mxCell id="8JtYcUfM9IEuaBObehJX-145" value="执行仿真" style="text;html=1;align=center;verticalAlign=middle;resizable=0;points=[];autosize=1;strokeColor=none;fillColor=none;fontColor=default;" vertex="1" parent="1">
          <mxGeometry x="625.5" y="340" width="60" height="20" as="geometry" />
        </mxCell>
        <mxCell id="8JtYcUfM9IEuaBObehJX-147" value="" style="curved=1;endArrow=classic;html=1;rounded=0;labelBackgroundColor=default;fontColor=default;strokeColor=default;entryX=0.333;entryY=0.167;entryDx=0;entryDy=0;entryPerimeter=0;exitX=0;exitY=1;exitDx=0;exitDy=0;" edge="1" parent="1" source="8JtYcUfM9IEuaBObehJX-7" target="8JtYcUfM9IEuaBObehJX-3">
          <mxGeometry width="50" height="50" relative="1" as="geometry">
            <mxPoint x="230" y="460" as="sourcePoint" />
            <mxPoint x="180" y="510" as="targetPoint" />
            <Array as="points">
              <mxPoint x="180" y="460" />
              <mxPoint x="230" y="510" />
            </Array>
          </mxGeometry>
        </mxCell>
        <mxCell id="8JtYcUfM9IEuaBObehJX-148" value="数据请求&lt;br&gt;数据存储" style="edgeLabel;html=1;align=center;verticalAlign=middle;resizable=0;points=[];fontColor=default;labelBackgroundColor=default;" vertex="1" connectable="0" parent="8JtYcUfM9IEuaBObehJX-147">
          <mxGeometry x="-0.4482" y="12" relative="1" as="geometry">
            <mxPoint y="-2" as="offset" />
          </mxGeometry>
        </mxCell>
        <mxCell id="8JtYcUfM9IEuaBObehJX-149" value="" style="endArrow=classic;html=1;rounded=0;labelBackgroundColor=default;fontColor=default;strokeColor=default;exitX=0.5;exitY=1;exitDx=0;exitDy=0;" edge="1" parent="1" source="8JtYcUfM9IEuaBObehJX-7" target="8JtYcUfM9IEuaBObehJX-4">
          <mxGeometry width="50" height="50" relative="1" as="geometry">
            <mxPoint x="414" y="480" as="sourcePoint" />
            <mxPoint x="464" y="430" as="targetPoint" />
          </mxGeometry>
        </mxCell>
        <mxCell id="8JtYcUfM9IEuaBObehJX-150" value="文件上传" style="edgeLabel;html=1;align=center;verticalAlign=middle;resizable=0;points=[];fontColor=default;" vertex="1" connectable="0" parent="8JtYcUfM9IEuaBObehJX-149">
          <mxGeometry x="-0.1693" y="-3" relative="1" as="geometry">
            <mxPoint x="-1" as="offset" />
          </mxGeometry>
        </mxCell>
        <mxCell id="8JtYcUfM9IEuaBObehJX-151" value="" style="curved=1;endArrow=classic;html=1;rounded=0;labelBackgroundColor=default;fontColor=default;strokeColor=default;entryX=0.25;entryY=1;entryDx=0;entryDy=0;exitX=1;exitY=0.75;exitDx=0;exitDy=0;" edge="1" parent="1" source="8JtYcUfM9IEuaBObehJX-7" target="8JtYcUfM9IEuaBObehJX-31">
          <mxGeometry width="50" height="50" relative="1" as="geometry">
            <mxPoint x="440" y="350" as="sourcePoint" />
            <mxPoint x="410" y="430" as="targetPoint" />
            <Array as="points">
              <mxPoint x="410" y="380" />
              <mxPoint x="460" y="430" />
            </Array>
          </mxGeometry>
        </mxCell>
        <mxCell id="8JtYcUfM9IEuaBObehJX-152" value="发布任务" style="edgeLabel;html=1;align=center;verticalAlign=middle;resizable=0;points=[];fontColor=default;" vertex="1" connectable="0" parent="8JtYcUfM9IEuaBObehJX-151">
          <mxGeometry x="-0.1736" y="-4" relative="1" as="geometry">
            <mxPoint as="offset" />
          </mxGeometry>
        </mxCell>
        <mxCell id="8JtYcUfM9IEuaBObehJX-153" value="" style="curved=1;endArrow=classic;html=1;rounded=0;labelBackgroundColor=default;fontColor=default;strokeColor=default;exitX=0.75;exitY=1;exitDx=0;exitDy=0;" edge="1" parent="1" source="8JtYcUfM9IEuaBObehJX-31" target="8JtYcUfM9IEuaBObehJX-4">
          <mxGeometry width="50" height="50" relative="1" as="geometry">
            <mxPoint x="605" y="500" as="sourcePoint" />
            <mxPoint x="555" y="550" as="targetPoint" />
            <Array as="points">
              <mxPoint x="555" y="500" />
              <mxPoint x="605" y="550" />
            </Array>
          </mxGeometry>
        </mxCell>
        <mxCell id="8JtYcUfM9IEuaBObehJX-154" value="文件存储" style="edgeLabel;html=1;align=center;verticalAlign=middle;resizable=0;points=[];fontColor=default;" vertex="1" connectable="0" parent="8JtYcUfM9IEuaBObehJX-153">
          <mxGeometry x="-0.4131" y="7" relative="1" as="geometry">
            <mxPoint as="offset" />
          </mxGeometry>
        </mxCell>
        <mxCell id="8JtYcUfM9IEuaBObehJX-155" value="" style="curved=1;endArrow=classic;html=1;rounded=0;labelBackgroundColor=default;fontColor=default;strokeColor=default;entryX=0.5;entryY=1;entryDx=0;entryDy=0;exitX=1;exitY=1;exitDx=0;exitDy=0;" edge="1" parent="1" source="8JtYcUfM9IEuaBObehJX-31" target="8JtYcUfM9IEuaBObehJX-3">
          <mxGeometry width="50" height="50" relative="1" as="geometry">
            <mxPoint x="609" y="630" as="sourcePoint" />
            <mxPoint x="659" y="580" as="targetPoint" />
            <Array as="points">
              <mxPoint x="659" y="630" />
              <mxPoint x="609" y="580" />
              <mxPoint x="530" y="630" />
            </Array>
          </mxGeometry>
        </mxCell>
        <mxCell id="8JtYcUfM9IEuaBObehJX-156" value="项目文件关系存储" style="edgeLabel;html=1;align=center;verticalAlign=middle;resizable=0;points=[];fontColor=default;" vertex="1" connectable="0" parent="8JtYcUfM9IEuaBObehJX-155">
          <mxGeometry x="-0.507" y="-4" relative="1" as="geometry">
            <mxPoint as="offset" />
          </mxGeometry>
        </mxCell>
        <mxCell id="8JtYcUfM9IEuaBObehJX-169" value="设置仿真结果状态" style="edgeLabel;html=1;align=center;verticalAlign=middle;resizable=0;points=[];fontColor=default;" vertex="1" connectable="0" parent="8JtYcUfM9IEuaBObehJX-155">
          <mxGeometry x="-0.3942" y="-5" relative="1" as="geometry">
            <mxPoint as="offset" />
          </mxGeometry>
        </mxCell>
        <mxCell id="8JtYcUfM9IEuaBObehJX-159" value="java-web-service" style="swimlane;labelBackgroundColor=default;fontColor=default;strokeColor=default;fillColor=default;" vertex="1" parent="1">
          <mxGeometry x="20" y="63" width="140" height="220" as="geometry" />
        </mxCell>
        <mxCell id="8JtYcUfM9IEuaBObehJX-160" value="jwt鉴权" style="ellipse;whiteSpace=wrap;html=1;labelBackgroundColor=default;fontColor=default;strokeColor=default;fillColor=default;" vertex="1" parent="8JtYcUfM9IEuaBObehJX-159">
          <mxGeometry x="25" y="40" width="85" height="50" as="geometry" />
        </mxCell>
        <mxCell id="8JtYcUfM9IEuaBObehJX-161" value="自定义&lt;br&gt;任务策略" style="ellipse;whiteSpace=wrap;html=1;labelBackgroundColor=default;fontColor=default;strokeColor=default;fillColor=default;" vertex="1" parent="8JtYcUfM9IEuaBObehJX-159">
          <mxGeometry x="27.5" y="100" width="85" height="50" as="geometry" />
        </mxCell>
        <mxCell id="8JtYcUfM9IEuaBObehJX-162" value="定时任务检索" style="ellipse;whiteSpace=wrap;html=1;labelBackgroundColor=default;fontColor=default;strokeColor=default;fillColor=default;" vertex="1" parent="8JtYcUfM9IEuaBObehJX-159">
          <mxGeometry x="27.5" y="160" width="85" height="50" as="geometry" />
        </mxCell>
        <mxCell id="8JtYcUfM9IEuaBObehJX-163" value="" style="shape=flexArrow;endArrow=classic;html=1;rounded=0;labelBackgroundColor=default;fontColor=default;strokeColor=default;entryX=1;entryY=1;entryDx=0;entryDy=0;exitX=0.125;exitY=0.017;exitDx=0;exitDy=0;exitPerimeter=0;" edge="1" parent="1" source="8JtYcUfM9IEuaBObehJX-7" target="8JtYcUfM9IEuaBObehJX-159">
          <mxGeometry width="50" height="50" relative="1" as="geometry">
            <mxPoint x="110" y="400" as="sourcePoint" />
            <mxPoint x="160" y="350" as="targetPoint" />
          </mxGeometry>
        </mxCell>
        <mxCell id="8JtYcUfM9IEuaBObehJX-164" value="临时文件" style="image;html=1;image=img/lib/clip_art/general/Full_Folder_128x128.png;shadow=0;dashed=0;labelBackgroundColor=#ffffff;fontColor=default;strokeColor=default;strokeWidth=2;fillColor=none;verticalAlign=top;" vertex="1" parent="1">
          <mxGeometry x="620" y="195.5" width="58.5" height="43" as="geometry" />
        </mxCell>
        <mxCell id="8JtYcUfM9IEuaBObehJX-165" value="" style="endArrow=classic;startArrow=classic;html=1;rounded=0;labelBackgroundColor=default;fontColor=default;strokeColor=default;exitX=1;exitY=0;exitDx=0;exitDy=0;" edge="1" parent="1" source="8JtYcUfM9IEuaBObehJX-31" target="8JtYcUfM9IEuaBObehJX-164">
          <mxGeometry width="50" height="50" relative="1" as="geometry">
            <mxPoint x="600" y="320" as="sourcePoint" />
            <mxPoint x="650" y="270" as="targetPoint" />
          </mxGeometry>
        </mxCell>
        <mxCell id="8JtYcUfM9IEuaBObehJX-173" value="生成文件&lt;br&gt;读取文件" style="edgeLabel;html=1;align=center;verticalAlign=middle;resizable=0;points=[];fontColor=default;" vertex="1" connectable="0" parent="8JtYcUfM9IEuaBObehJX-165">
          <mxGeometry x="0.2373" y="-2" relative="1" as="geometry">
            <mxPoint x="1" as="offset" />
          </mxGeometry>
        </mxCell>
        <mxCell id="8JtYcUfM9IEuaBObehJX-166" value="" style="endArrow=classic;startArrow=classic;html=1;rounded=0;labelBackgroundColor=default;fontColor=default;strokeColor=default;entryX=0.25;entryY=1;entryDx=0;entryDy=0;exitX=0.37;exitY=0.05;exitDx=0;exitDy=0;exitPerimeter=0;" edge="1" parent="1" source="8JtYcUfM9IEuaBObehJX-5" target="8JtYcUfM9IEuaBObehJX-1">
          <mxGeometry width="50" height="50" relative="1" as="geometry">
            <mxPoint x="330" y="190" as="sourcePoint" />
            <mxPoint x="380" y="140" as="targetPoint" />
          </mxGeometry>
        </mxCell>
        <mxCell id="8JtYcUfM9IEuaBObehJX-167" value="http" style="edgeLabel;html=1;align=center;verticalAlign=middle;resizable=0;points=[];fontColor=default;labelBackgroundColor=default;" vertex="1" connectable="0" parent="8JtYcUfM9IEuaBObehJX-166">
          <mxGeometry x="0.4334" y="2" relative="1" as="geometry">
            <mxPoint y="7" as="offset" />
          </mxGeometry>
        </mxCell>
        <mxCell id="8JtYcUfM9IEuaBObehJX-170" value="" style="endArrow=classic;html=1;rounded=0;labelBackgroundColor=default;fontColor=default;strokeColor=default;entryX=1;entryY=0.5;entryDx=0;entryDy=0;exitX=0;exitY=0.5;exitDx=0;exitDy=0;" edge="1" parent="1" source="8JtYcUfM9IEuaBObehJX-31" target="8JtYcUfM9IEuaBObehJX-7">
          <mxGeometry width="50" height="50" relative="1" as="geometry">
            <mxPoint x="410" y="380" as="sourcePoint" />
            <mxPoint x="460" y="330" as="targetPoint" />
          </mxGeometry>
        </mxCell>
        <mxCell id="8JtYcUfM9IEuaBObehJX-171" value="实时仿真数据+进度" style="edgeLabel;html=1;align=center;verticalAlign=middle;resizable=0;points=[];fontColor=default;" vertex="1" connectable="0" parent="8JtYcUfM9IEuaBObehJX-170">
          <mxGeometry x="-0.3275" y="1" relative="1" as="geometry">
            <mxPoint as="offset" />
          </mxGeometry>
        </mxCell>
        <mxCell id="8JtYcUfM9IEuaBObehJX-172" value="" style="endArrow=classic;startArrow=classic;html=1;rounded=0;labelBackgroundColor=default;fontColor=default;strokeColor=default;exitX=0.5;exitY=0;exitDx=0;exitDy=0;entryX=1;entryY=0.5;entryDx=0;entryDy=0;" edge="1" parent="1" source="8JtYcUfM9IEuaBObehJX-32" target="8JtYcUfM9IEuaBObehJX-164">
          <mxGeometry width="50" height="50" relative="1" as="geometry">
            <mxPoint x="710" y="270" as="sourcePoint" />
            <mxPoint x="760" y="220" as="targetPoint" />
          </mxGeometry>
        </mxCell>
        <mxCell id="8JtYcUfM9IEuaBObehJX-174" value="读取文件&lt;br&gt;生成文件" style="edgeLabel;html=1;align=center;verticalAlign=middle;resizable=0;points=[];fontColor=default;" vertex="1" connectable="0" parent="8JtYcUfM9IEuaBObehJX-172">
          <mxGeometry x="0.1915" y="-4" relative="1" as="geometry">
            <mxPoint as="offset" />
          </mxGeometry>
        </mxCell>
      </root>
    </mxGraphModel>
  </diagram>
</mxfile>
